REM DIRINDEX 1\2,1\3,1\4,1\5
REM DIRNAME cjc005,folder01,folder02,folder03,folder04
TITLE ""
FILE "P1Q_t_1431-1440.mp3" MP3
  TRACK 01 AUDIO
    TITLE "3:cjc005_5201"
    INDEX 01 00:00:00
  TRACK 02 AUDIO
    TITLE "0:"
    INDEX 01 00:01:17
  TRACK 03 AUDIO
    TITLE "4:cjc005_5202"
    INDEX 01 00:01:40
  TRACK 04 AUDIO
    TITLE "0:"
    INDEX 01 00:02:40
  TRACK 05 AUDIO
    TITLE "5:cjc005_5203"
    INDEX 01 00:02:63
  TRACK 06 AUDIO
    TITLE "0:"
    INDEX 01 00:06:59
  TRACK 07 AUDIO
    TITLE "3:cjc005_5204"
    INDEX 01 00:07:33
  TRACK 08 AUDIO
    TITLE "0:"
    INDEX 01 00:08:44
  TRACK 09 AUDIO
    TITLE "4:cjc005_5205"
    INDEX 01 00:08:66
  TRACK 10 AUDIO
    TITLE "0:"
    INDEX 01 00:10:41
  TRACK 11 AUDIO
    TITLE "5:cjc005_5206"
    INDEX 01 00:10:65
  TRACK 12 AUDIO
    TITLE "0:"
    INDEX 01 00:15:11
  TRACK 13 AUDIO
    TITLE "3:cjc005_5207"
    INDEX 01 00:15:62
  TRACK 14 AUDIO
    TITLE "0:"
    INDEX 01 00:16:73
  TRACK 15 AUDIO
    TITLE "4:cjc005_5208"
    INDEX 01 00:17:21
  TRACK 16 AUDIO
    TITLE "0:"
    INDEX 01 00:18:70
  TRACK 17 AUDIO
    TITLE "5:cjc005_5209"
    INDEX 01 00:19:18
  TRACK 18 AUDIO
    TITLE "0:"
    INDEX 01 00:24:47
  TRACK 19 AUDIO
    TITLE "3:cjc005_5210"
    INDEX 01 00:25:21
  TRACK 20 AUDIO
    TITLE "0:"
    INDEX 01 00:26:38
  TRACK 21 AUDIO
    TITLE "4:cjc005_5211"
    INDEX 01 00:26:64
  TRACK 22 AUDIO
    TITLE "0:"
    INDEX 01 00:28:04
  TRACK 23 AUDIO
    TITLE "5:cjc005_5212"
    INDEX 01 00:28:27
  TRACK 24 AUDIO
    TITLE "0:"
    INDEX 01 00:32:31
  TRACK 25 AUDIO
    TITLE "3:cjc005_5213"
    INDEX 01 00:33:09
  TRACK 26 AUDIO
    TITLE "0:"
    INDEX 01 00:34:28
  TRACK 27 AUDIO
    TITLE "4:cjc005_5214"
    INDEX 01 00:34:55
  TRACK 28 AUDIO
    TITLE "0:"
    INDEX 01 00:35:72
  TRACK 29 AUDIO
    TITLE "5:cjc005_5215"
    INDEX 01 00:36:19
  TRACK 30 AUDIO
    TITLE "0:"
    INDEX 01 00:40:11
  TRACK 31 AUDIO
    TITLE "3:cjc005_5216"
    INDEX 01 00:40:58
  TRACK 32 AUDIO
    TITLE "0:"
    INDEX 01 00:41:65
  TRACK 33 AUDIO
    TITLE "4:cjc005_5217"
    INDEX 01 00:42:18
  TRACK 34 AUDIO
    TITLE "0:"
    INDEX 01 00:43:39
  TRACK 35 AUDIO
    TITLE "5:cjc005_5218"
    INDEX 01 00:43:62
  TRACK 36 AUDIO
    TITLE "0:"
    INDEX 01 00:47:32
  TRACK 37 AUDIO
    TITLE "3:cjc005_5219"
    INDEX 01 00:48:06
  TRACK 38 AUDIO
    TITLE "0:"
    INDEX 01 00:49:08
  TRACK 39 AUDIO
    TITLE "4:cjc005_5220"
    INDEX 01 00:49:35
  TRACK 40 AUDIO
    TITLE "0:"
    INDEX 01 00:50:42
  TRACK 41 AUDIO
    TITLE "5:cjc005_5221"
    INDEX 01 00:50:66
  TRACK 42 AUDIO
    TITLE "0:"
    INDEX 01 00:54:19
  TRACK 43 AUDIO
    TITLE "3:cjc005_5222"
    INDEX 01 00:54:70
  TRACK 44 AUDIO
    TITLE "0:"
    INDEX 01 00:56:08
  TRACK 45 AUDIO
    TITLE "4:cjc005_5223"
    INDEX 01 00:56:33
  TRACK 46 AUDIO
    TITLE "0:"
    INDEX 01 00:57:54
  TRACK 47 AUDIO
    TITLE "5:cjc005_5224"
    INDEX 01 00:58:01
  TRACK 48 AUDIO
    TITLE "0:"
    INDEX 01 01:02:40
  TRACK 49 AUDIO
    TITLE "3:cjc005_5225"
    INDEX 01 01:03:18
  TRACK 50 AUDIO
    TITLE "0:"
    INDEX 01 01:04:23
  TRACK 51 AUDIO
    TITLE "4:cjc005_5226"
    INDEX 01 01:04:48
  TRACK 52 AUDIO
    TITLE "0:"
    INDEX 01 01:06:00
  TRACK 53 AUDIO
    TITLE "5:cjc005_5227"
    INDEX 01 01:06:22
  TRACK 54 AUDIO
    TITLE "0:"
    INDEX 01 01:09:09
  TRACK 55 AUDIO
    TITLE "3:cjc005_5228"
    INDEX 01 01:09:57
  TRACK 56 AUDIO
    TITLE "0:"
    INDEX 01 01:10:65
  TRACK 57 AUDIO
    TITLE "4:cjc005_5229"
    INDEX 01 01:11:11
  TRACK 58 AUDIO
    TITLE "0:"
    INDEX 01 01:12:34
  TRACK 59 AUDIO
    TITLE "5:cjc005_5230"
    INDEX 01 01:12:56
  TRACK 60 AUDIO
    TITLE "0:"
    INDEX 01 01:16:50
